<svg width="52" height="40" viewBox="0 0 52 40" fill="none" xmlns="http://www.w3.org/2000/svg">
<path d="M26 0C30.6637 0 34.45 4.00469 34.45 8.9375C34.45 13.8703 30.6637 17.875 26 17.875C21.3362 17.875 17.55 13.8703 17.55 8.9375C17.55 4.00469 21.3362 0 26 0ZM7.8 6.1875C11.0337 6.1875 13.65 8.95469 13.65 12.375C13.65 15.7953 11.0337 18.5625 7.8 18.5625C4.56625 18.5625 1.95 15.7953 1.95 12.375C1.95 8.95469 4.56625 6.1875 7.8 6.1875ZM0 34.375C0 28.2992 4.65562 23.375 10.4 23.375C11.44 23.375 12.4475 23.5383 13.3981 23.8391C10.725 27.0016 9.1 31.1781 9.1 35.75V37.125C9.1 38.1047 9.295 39.0328 9.64437 39.875H2.6C1.16187 39.875 0 38.6461 0 37.125V34.375ZM42.3556 39.875C42.705 39.0328 42.9 38.1047 42.9 37.125V35.75C42.9 31.1781 41.275 27.0016 38.6019 23.8391C39.5525 23.5383 40.56 23.375 41.6 23.375C47.3444 23.375 52 28.2992 52 34.375V37.125C52 38.6461 50.8381 39.875 49.4 39.875H42.3556ZM38.35 12.375C38.35 8.95469 40.9662 6.1875 44.2 6.1875C47.4337 6.1875 50.05 8.95469 50.05 12.375C50.05 15.7953 47.4337 18.5625 44.2 18.5625C40.9662 18.5625 38.35 15.7953 38.35 12.375ZM13 35.75C13 28.1531 18.8175 22 26 22C33.1825 22 39 28.1531 39 35.75V37.125C39 38.6461 37.8381 39.875 36.4 39.875H15.6C14.1619 39.875 13 38.6461 13 37.125V35.75Z" fill="#37029F"/>
</svg>
